# Blender v2.78 (sub 0) OBJ File: 'KNA_house.blend'
# www.blender.org
mtllib KNA_house.mtl
o Cube.001_Cube.004
v -1.481444 0.002128 0.430080
v -1.481444 2.002128 0.430080
v -1.481444 0.002128 0.964974
v -1.481444 2.002128 0.964974
v 0.518556 0.002128 0.430080
v 0.518556 2.002128 0.430080
v 0.518556 0.002128 0.964974
v 0.518556 2.002128 0.964974
v -1.481444 0.002128 0.430080
v -1.481444 2.002128 0.430080
v -1.481444 0.002128 0.964974
v -1.481444 2.002128 0.964974
v 0.518556 0.002128 0.430080
v 0.518556 2.002128 0.430080
v 0.518556 0.002128 0.964974
v 0.518556 2.002128 0.964974
v -1.481444 0.002128 0.430080
v -1.481444 2.002128 0.430080
v -1.481444 0.002128 0.964974
v -1.481444 2.002128 0.964974
v 0.518556 0.002128 0.430080
v 0.518556 2.002128 0.430080
v 0.518556 0.002128 0.964974
v 0.518556 2.002128 0.964974
v -1.481444 2.998208 0.430080
v -1.481444 2.998208 0.964974
v 0.518556 2.998208 0.964974
v 0.518556 2.998208 0.430080
v -2.532303 2.002128 0.430080
v -2.532303 2.002128 0.964974
v -2.532303 2.998208 0.430080
v -2.532303 2.998208 0.964974
v -4.803868 2.002128 0.430080
v -4.803868 2.002128 0.964974
v -4.803868 2.998208 0.430080
v -4.803868 2.998208 0.964974
v -2.532303 -0.040376 0.430080
v -2.532303 -0.040376 0.964974
v -4.803868 -0.040376 0.430080
v -4.803868 -0.040376 0.964974
v -4.922926 2.002128 0.430080
v -4.922926 2.002128 0.964974
v -4.922926 2.998208 0.430080
v -4.922926 2.998208 0.964974
v -4.922926 -0.040376 0.430080
v -4.922926 -0.040376 0.964974
v 6.190333 3.618673 7.938233
v 6.304855 3.643107 0.690257
v 6.190532 2.965883 7.936035
v 6.305055 2.990317 0.688060
v -5.230780 3.615799 7.757761
v -5.116257 3.640233 0.509786
v -5.230580 2.963010 7.755564
v -5.116059 2.987443 0.507589
v 0.071778 -0.049021 7.108081
v 0.071778 3.683492 7.108081
v 0.724571 -0.049021 7.108286
v 0.724571 3.683492 7.108286
v 0.073877 -0.049020 0.407109
v 0.073877 3.683494 0.407109
v 0.726670 -0.049020 0.407314
v 0.726670 3.683494 0.407314
v -5.432198 -0.172738 7.550113
v -5.432198 3.559775 7.550113
v -4.779405 -0.172738 7.550317
v -4.779405 3.559775 7.550317
v -5.430002 -0.172736 0.540739
v -5.430002 3.559777 0.540739
v -4.777208 -0.172736 0.540943
v -4.777208 3.559777 0.540943
v 5.728867 -0.179718 7.870143
v 5.728867 3.552795 7.870143
v 6.381660 -0.179718 7.870347
v 6.381660 3.552795 7.870347
v 5.733520 -0.179715 -6.986352
v 5.733520 3.552798 -6.986352
v 6.386313 -0.179715 -6.986148
v 6.386313 3.552798 -6.986148
v 6.169714 -0.078139 -6.598281
v 6.169714 1.741096 -6.598281
v 6.213603 -0.078139 -7.249596
v 6.213603 1.741097 -7.249596
v -4.580004 -0.078139 -7.322642
v -4.580004 1.741096 -7.322642
v -4.536116 -0.078139 -7.973960
v -4.536116 1.741097 -7.973960
v 6.285376 -0.171654 7.695168
v 6.161249 3.558795 7.695129
v 6.289718 -0.171516 7.042389
v 6.165591 3.558932 7.042350
v -5.162604 -0.552575 7.618948
v -5.286732 3.177873 7.618909
v -5.158264 -0.552437 6.966169
v -5.282391 3.178011 6.966130
v 3.619026 0.002128 0.430080
v 3.619026 2.002128 0.430080
v 3.619026 0.002128 0.964974
v 3.619026 2.002128 0.964974
v 5.619026 0.002128 0.430080
v 5.619026 2.002128 0.430080
v 5.619026 0.002128 0.964974
v 5.619026 2.002128 0.964974
v 3.619026 0.002128 0.430080
v 3.619026 2.002128 0.430080
v 3.619026 0.002128 0.964974
v 3.619026 2.002128 0.964974
v 5.619026 0.002128 0.430080
v 5.619026 2.002128 0.430080
v 5.619026 0.002128 0.964974
v 5.619026 2.002128 0.964974
v 3.619026 0.002128 0.430080
v 3.619026 2.002128 0.430080
v 3.619026 0.002128 0.964974
v 3.619026 2.002128 0.964974
v 5.619026 0.002128 0.430080
v 5.619026 2.002128 0.430080
v 5.619026 0.002128 0.964974
v 5.619026 2.002128 0.964974
v 3.619026 2.998208 0.430080
v 3.619026 2.998208 0.964974
v 5.619026 2.998208 0.964974
v 5.619026 2.998208 0.430080
v 2.568167 2.002128 0.430080
v 2.568167 2.002128 0.964974
v 2.568167 2.998208 0.430080
v 2.568167 2.998208 0.964974
v 0.296602 2.002128 0.430080
v 0.296602 2.002128 0.964974
v 0.296602 2.998208 0.430080
v 0.296602 2.998208 0.964974
v 2.568167 -0.040376 0.430080
v 2.568167 -0.040376 0.964974
v 0.296602 -0.040376 0.430080
v 0.296602 -0.040376 0.964974
v 0.177544 2.002128 0.430080
v 0.177544 2.002128 0.964974
v 0.177544 2.998208 0.430080
v 0.177544 2.998208 0.964974
v 0.177544 -0.040376 0.430080
v 0.177544 -0.040376 0.964974
vn 1.0000 0.0000 0.0000
vn 0.0000 0.0000 -1.0000
vn -1.0000 0.0000 0.0000
vn 0.0000 0.0000 1.0000
vn 0.0000 1.0000 0.0000
vn 0.0000 -1.0000 0.0000
vn -0.9999 -0.0003 -0.0158
vn -0.0003 1.0000 0.0034
vn 0.9999 0.0002 0.0158
vn 0.0003 -1.0000 -0.0034
vn 0.0158 0.0034 -0.9999
vn -0.0158 -0.0034 0.9999
vn 0.0003 0.0000 -1.0000
vn -1.0000 0.0000 -0.0003
vn -0.0003 0.0000 1.0000
vn 1.0000 0.0000 0.0003
vn -0.9977 0.0000 -0.0672
vn -0.0672 0.0000 0.9977
vn 0.9977 0.0000 0.0672
vn 0.0672 0.0000 -0.9977
vn -0.9994 -0.0333 -0.0067
vn -0.0067 -0.0002 1.0000
vn 0.9994 0.0333 0.0067
vn 0.0067 0.0002 -1.0000
vn -0.0333 0.9994 -0.0000
vn 0.0333 -0.9994 0.0000
usemtl None
s off
f 1//1 2//1 4//1 3//1
f 3//2 4//2 8//2 7//2
f 7//3 8//3 6//3 5//3
f 5//4 6//4 2//4 1//4
f 3//5 7//5 5//5 1//5
f 8//6 4//6 2//6 6//6
f 9//1 10//1 12//1 11//1
f 11//2 12//2 16//2 15//2
f 15//3 16//3 14//3 13//3
f 13//4 14//4 10//4 9//4
f 11//5 15//5 13//5 9//5
f 16//6 12//6 10//6 14//6
f 17//1 18//1 20//1 19//1
f 19//2 20//2 24//2 23//2
f 23//3 24//3 22//3 21//3
f 21//4 22//4 18//4 17//4
f 19//5 23//5 21//5 17//5
f 22//3 24//3 27//3 28//3
f 27//6 26//6 25//6 28//6
f 25//6 26//6 32//6 31//6
f 18//4 22//4 28//4 25//4
f 24//2 20//2 26//2 27//2
f 32//2 30//2 34//2 36//2
f 26//2 20//2 30//2 32//2
f 20//5 18//5 29//5 30//5
f 18//4 25//4 31//4 29//4
f 33//4 35//4 43//4 41//4
f 31//6 32//6 36//6 35//6
f 29//4 31//4 35//4 33//4
f 34//2 30//2 38//2 40//2
f 38//5 37//5 39//5 40//5
f 34//2 40//2 46//2 42//2
f 29//4 33//4 39//4 37//4
f 30//3 29//3 37//3 38//3
f 42//1 41//1 43//1 44//1
f 41//1 42//1 46//1 45//1
f 40//5 39//5 45//5 46//5
f 39//4 33//4 41//4 45//4
f 36//2 34//2 42//2 44//2
f 35//6 36//6 44//6 43//6
f 47//7 48//7 50//7 49//7
f 49//8 50//8 54//8 53//8
f 53//9 54//9 52//9 51//9
f 51//10 52//10 48//10 47//10
f 49//11 53//11 51//11 47//11
f 54//12 50//12 48//12 52//12
f 55//13 56//13 58//13 57//13
f 57//14 58//14 62//14 61//14
f 61//15 62//15 60//15 59//15
f 59//16 60//16 56//16 55//16
f 57//5 61//5 59//5 55//5
f 62//6 58//6 56//6 60//6
f 63//13 64//13 66//13 65//13
f 65//14 66//14 70//14 69//14
f 69//15 70//15 68//15 67//15
f 67//16 68//16 64//16 63//16
f 65//5 69//5 67//5 63//5
f 70//6 66//6 64//6 68//6
f 71//13 72//13 74//13 73//13
f 73//14 74//14 78//14 77//14
f 77//15 78//15 76//15 75//15
f 75//16 76//16 72//16 71//16
f 73//5 77//5 75//5 71//5
f 78//6 74//6 72//6 76//6
f 79//17 80//17 82//17 81//17
f 81//18 82//18 86//18 85//18
f 85//19 86//19 84//19 83//19
f 83//20 84//20 80//20 79//20
f 81//5 85//5 83//5 79//5
f 86//6 82//6 80//6 84//6
f 87//21 88//21 90//21 89//21
f 89//22 90//22 94//22 93//22
f 93//23 94//23 92//23 91//23
f 91//24 92//24 88//24 87//24
f 89//25 93//25 91//25 87//25
f 94//26 90//26 88//26 92//26
f 95//1 96//1 98//1 97//1
f 97//2 98//2 102//2 101//2
f 101//3 102//3 100//3 99//3
f 99//4 100//4 96//4 95//4
f 97//5 101//5 99//5 95//5
f 102//6 98//6 96//6 100//6
f 103//1 104//1 106//1 105//1
f 105//2 106//2 110//2 109//2
f 109//3 110//3 108//3 107//3
f 107//4 108//4 104//4 103//4
f 105//5 109//5 107//5 103//5
f 110//6 106//6 104//6 108//6
f 111//1 112//1 114//1 113//1
f 113//2 114//2 118//2 117//2
f 117//3 118//3 116//3 115//3
f 115//4 116//4 112//4 111//4
f 113//5 117//5 115//5 111//5
f 116//3 118//3 121//3 122//3
f 121//6 120//6 119//6 122//6
f 119//6 120//6 126//6 125//6
f 112//4 116//4 122//4 119//4
f 118//2 114//2 120//2 121//2
f 126//2 124//2 128//2 130//2
f 120//2 114//2 124//2 126//2
f 114//5 112//5 123//5 124//5
f 112//4 119//4 125//4 123//4
f 127//4 129//4 137//4 135//4
f 125//6 126//6 130//6 129//6
f 123//4 125//4 129//4 127//4
f 128//2 124//2 132//2 134//2
f 132//5 131//5 133//5 134//5
f 128//2 134//2 140//2 136//2
f 123//4 127//4 133//4 131//4
f 124//3 123//3 131//3 132//3
f 136//1 135//1 137//1 138//1
f 135//1 136//1 140//1 139//1
f 134//5 133//5 139//5 140//5
f 133//4 127//4 135//4 139//4
f 130//2 128//2 136//2 138//2
f 129//6 130//6 138//6 137//6
